<svg width="24" height="24" viewBox="0 0 24 24" fill="none" xmlns="http://www.w3.org/2000/svg">
<g clip-path="url(#clip0)">
<path d="M13.9695 21.3162C13.7811 21.367 13.5889 21.4123 13.3982 21.4515C12.8991 21.5532 12.5771 22.0402 12.679 22.5393C12.6847 22.5678 12.6918 22.5949 12.7 22.6221C12.8361 23.0732 13.2963 23.3547 13.767 23.2586C13.9947 23.212 14.2241 23.1578 14.449 23.0972C14.941 22.9649 15.2323 22.4588 15.1 21.9668C14.9675 21.4742 14.4614 21.1837 13.9695 21.3162Z" fill="#0071FB"/>
<path d="M7.54052 20.8028C7.3624 20.7236 7.1847 20.6378 7.0123 20.5476C6.56054 20.3121 6.00362 20.4871 5.76804 20.9388C5.65175 21.161 5.63543 21.4089 5.70262 21.6314C5.77199 21.8608 5.92982 22.0634 6.1588 22.1829C6.36458 22.2901 6.57609 22.3926 6.78827 22.4872C7.25324 22.6948 7.79872 22.4863 8.00648 22.0214C8.21424 21.5561 8.00554 21.011 7.54052 20.8028Z" fill="#0071FB"/>
<path d="M10.7121 21.6136C10.5181 21.598 10.3213 21.576 10.1281 21.5489C9.62375 21.477 9.15706 21.828 9.0854 22.3323C9.06595 22.4694 9.07786 22.6034 9.1153 22.7277C9.21583 23.0608 9.50185 23.3227 9.86916 23.3751C10.099 23.4075 10.3329 23.4336 10.5641 23.452C11.0719 23.4931 11.5166 23.1146 11.5575 22.6071C11.5983 22.0992 11.22 21.6545 10.7121 21.6136Z" fill="#0071FB"/>
<path d="M16.94 19.9405C16.7798 20.0507 16.6136 20.1577 16.4463 20.2587C16.0776 20.4808 15.9203 20.9202 16.0389 21.3141C16.0608 21.3863 16.092 21.457 16.1326 21.5248C16.3954 21.961 16.9623 22.1011 17.3986 21.8385C17.5975 21.7185 17.7951 21.5909 17.9856 21.4599C18.4051 21.1711 18.5114 20.5969 18.2226 20.1774C17.9339 19.7576 17.3594 19.6517 16.94 19.9405Z" fill="#0071FB"/>
<path d="M20.5656 17.4462C20.1525 17.1483 19.5761 17.2418 19.2781 17.6547C19.1643 17.8126 19.0439 17.9693 18.9206 18.1196C18.7183 18.3667 18.6658 18.6869 18.7513 18.9712C18.8026 19.1404 18.9027 19.2972 19.0496 19.4177C19.4437 19.7404 20.0247 19.6824 20.3474 19.2883C20.4946 19.1089 20.6384 18.9221 20.774 18.7338C21.0719 18.3206 20.9787 17.7444 20.5656 17.4462Z" fill="#0071FB"/>
<path d="M21.8563 14.087C21.3675 13.9442 20.8554 14.225 20.7128 14.714C20.658 14.9012 20.5969 15.0893 20.5316 15.2728C20.4622 15.4659 20.4612 15.6672 20.5164 15.8496C20.5979 16.1202 20.8021 16.3496 21.0881 16.452C21.5677 16.624 22.0955 16.3749 22.2677 15.8956C22.346 15.6769 22.4186 15.4531 22.4834 15.2303C22.6259 14.7416 22.3452 14.2293 21.8563 14.087Z" fill="#0071FB"/>
<path d="M23.5868 8.07824L22.3747 8.45486C21.4549 5.63599 19.5181 3.3196 16.8967 1.91277C16.6329 1.77106 16.3652 1.64084 16.0942 1.52118C16.0923 1.52024 16.0907 1.51946 16.0889 1.51827C16.0776 1.51348 16.0656 1.50901 16.0546 1.50412C13.6646 0.458358 11.0198 0.260116 8.48456 0.946682C8.46464 0.950582 8.44472 0.954326 8.42507 0.959891C8.3404 0.982981 8.25496 1.008 8.17066 1.03317C8.03227 1.07498 7.89306 1.12001 7.75649 1.16687C7.74032 1.17243 7.72508 1.17935 7.70938 1.18559C5.44624 1.96956 3.519 3.41498 2.1441 5.34622C2.13921 5.35288 2.1337 5.3586 2.12907 5.36521C1.99469 5.55393 1.86452 5.74963 1.74158 5.94703C1.73389 5.95967 1.72749 5.97283 1.72016 5.98588C1.59753 6.18475 1.47969 6.38819 1.36808 6.59569C0.228558 8.71935 -0.206149 11.0922 0.0904337 13.436C0.0911098 13.4414 0.0917338 13.4464 0.0922019 13.4517C0.0926699 13.4554 0.093502 13.4593 0.0943861 13.4632C0.174993 14.0894 0.307397 14.7135 0.493314 15.3299C0.981534 16.9486 1.79619 18.404 2.9145 19.6561C3.25372 20.0358 3.8368 20.0686 4.21674 19.7294C4.59648 19.39 4.73893 18.8068 4.39945 18.4272C3.84118 17.8024 3.37397 17.1162 3 16.3769C3.00437 16.3857 2.996 16.3678 3 16.3769C2.91206 16.2025 2.74298 16.0237 2.6656 15.8448L2.72675 15.9605C2.58592 15.6311 2.60553 15.2921 2.50027 14.9437C1.29153 10.9359 2.73466 6.59585 5.93363 4.25106C5.88583 4.28445 5.98095 4.21663 5.93363 4.25106C6.75488 3.67183 7.68119 3.21252 8.69497 2.90684C9.7152 2.59929 10.7469 2.36755 11.7574 2.39782C11.7737 2.39855 11.7896 2.39902 11.8057 2.39948C11.8674 2.40136 11.9289 2.40463 11.9902 2.40806C11.9655 2.4065 12.0151 2.40936 11.9902 2.40806C15.1411 2.60516 18.0465 4.35512 19.6776 7.10435L19.7544 7.11345C19.7786 7.15427 19.8022 7.19504 19.8259 7.23633C19.8288 7.24096 19.8318 7.24507 19.8345 7.2498C20.1466 7.79705 20.4092 8.38267 20.6134 9.00241L19.4014 9.37924C19.0648 9.48382 19.0316 9.72601 19.3271 9.91749L21.9647 11.6259C22.2604 11.8176 22.6131 11.7079 22.7479 11.3828L23.9529 8.47987C24.0876 8.15453 23.9232 7.97371 23.5868 8.07824Z" fill="#0071FB"/>
<path d="M8.07565 12.025C7.18678 12.6835 6.58051 13.2547 6.25736 13.7385C5.93451 14.2223 5.74085 14.7388 5.67725 15.2881H11.2384V13.7772H8.34394C8.51389 13.6101 8.66174 13.4753 8.78769 13.3723C8.9137 13.2688 9.16301 13.0885 9.5363 12.8305C10.1642 12.3876 10.5974 11.981 10.8356 11.6108C11.0737 11.2408 11.1928 10.8524 11.1928 10.4459C11.1928 10.0637 11.0889 9.71847 10.8811 9.41034C10.6732 9.10252 10.3878 8.87412 10.0254 8.72544C9.66293 8.57696 9.15542 8.50244 8.50302 8.50244C7.87824 8.50244 7.38913 8.58071 7.0355 8.73719C6.68229 8.89341 6.40828 9.11781 6.21425 9.41034C6.02001 9.70344 5.88667 10.1107 5.81371 10.6323L7.67048 10.7824C7.72201 10.4065 7.82301 10.1439 7.97304 9.99534C8.12339 9.84666 8.31648 9.77224 8.55346 9.77224C8.78088 9.77224 8.96981 9.84442 9.1199 9.98858C9.26998 10.1324 9.34518 10.3063 9.34518 10.5097C9.34518 10.6979 9.26936 10.8965 9.11756 11.106C8.96586 11.3152 8.61847 11.6217 8.07565 12.025Z" fill="#0071FB"/>
<path d="M16.8316 15.2881V14.041H17.6688V12.6027H16.8316V8.50244H15.216L11.8394 12.5165V14.041H15.216V15.2881H16.8316ZM13.432 12.6027L15.216 10.5035V12.6027H13.432Z" fill="#0071FB"/>
</g>
<defs>
<clipPath id="clip0">
<rect width="24" height="24" fill="white"/>
</clipPath>
</defs>
</svg>
