<svg width="24" height="24" viewBox="0 0 24 24" fill="none" xmlns="http://www.w3.org/2000/svg">
<g clip-path="url(#clip0)">
<path d="M0.70208 18.3286H19.0779C19.2427 18.3286 19.402 18.271 19.5283 18.1659C19.7048 18.0181 23.731 14.5546 23.9765 7.07812H4.24121C3.99665 13.8647 0.288765 17.0546 0.250232 17.0864C0.0243312 17.2773 -0.0587819 17.5891 0.0428476 17.8665C0.143774 18.1432 0.406801 18.3286 0.70208 18.3286Z" fill="#0071FB"/>
<path d="M23.2968 2.85895H19.781V2.15579C19.781 1.76203 19.4716 1.45264 19.0778 1.45264C18.684 1.45264 18.3747 1.76203 18.3747 2.15579V2.85895H14.812V2.15579C14.812 1.76203 14.5026 1.45264 14.1088 1.45264C13.7151 1.45264 13.4057 1.76203 13.4057 2.15579V2.85895H9.8899V2.15579C9.8899 1.76203 9.58051 1.45264 9.18675 1.45264C8.79298 1.45264 8.48359 1.76203 8.48359 2.15579V2.85895H4.96781C4.57404 2.85895 4.26465 3.16834 4.26465 3.56211V5.67158H23.9999V3.56211C23.9999 3.16834 23.6905 2.85895 23.2968 2.85895Z" fill="#0071FB"/>
<path d="M20.4313 19.2436C20.0494 19.5616 19.5702 19.7346 19.0778 19.7346H4.26465V21.8441C4.26465 22.2328 4.57915 22.5473 4.96781 22.5473H23.2968C23.6854 22.5473 23.9999 22.2328 23.9999 21.8441V13.9619C22.6442 17.2879 20.7525 18.9748 20.4313 19.2436Z" fill="#0071FB"/>
</g>
<defs>
<clipPath id="clip0">
<rect width="24" height="24" fill="white"/>
</clipPath>
</defs>
</svg>
