<svg width="15" height="15" viewBox="0 0 15 15" fill="none" xmlns="http://www.w3.org/2000/svg">
<path d="M14.9744 8.38632C14.7091 5.70888 12.2997 3.75049 9.60917 3.75049H5.62488V1.40679C5.62488 1.22679 5.52176 1.06273 5.35957 0.983984C5.19645 0.906173 5.00427 0.926798 4.86365 1.04023L0.176246 4.79015C0.0646861 4.88015 0 5.01421 0 5.15671C0 5.2992 0.0646861 5.43326 0.175309 5.52326L4.86271 9.27318C4.94802 9.34068 5.05208 9.37537 5.15614 9.37537C5.22551 9.37537 5.29489 9.36037 5.35957 9.32943C5.52176 9.25068 5.62488 9.08662 5.62488 8.90663V6.56293H9.70854C10.9348 6.56293 12.0522 7.44416 12.1751 8.66382C12.3166 10.0663 11.2169 11.2503 9.84354 11.2503H6.09362C5.83488 11.2503 5.62488 11.4603 5.62488 11.7191V13.594C5.62488 13.8528 5.83488 14.0628 6.09362 14.0628H9.84354C12.8557 14.0628 15.2772 11.4594 14.9744 8.38632Z" fill="#232323"/>
</svg>
