<svg width="35" height="35" viewBox="0 0 35 35" fill="none" xmlns="http://www.w3.org/2000/svg">
<rect x="1" y="1" width="33" height="33" rx="9" fill="white" stroke="#779EFF" stroke-width="2"/>
<path d="M23.9744 18.3863C23.7091 15.7088 21.2997 13.7504 18.6092 13.7504H14.6249V11.4067C14.6249 11.2267 14.5218 11.0627 14.3596 10.9839C14.1965 10.9061 14.0043 10.9267 13.8636 11.0402L9.17625 14.7901C9.06469 14.8801 9 15.0142 9 15.1566C9 15.2991 9.06469 15.4332 9.17531 15.5232L13.8627 19.2731C13.948 19.3406 14.0521 19.3753 14.1561 19.3753C14.2255 19.3753 14.2949 19.3603 14.3596 19.3294C14.5218 19.2506 14.6249 19.0866 14.6249 18.9066V16.5629H18.7085C19.9348 16.5629 21.0522 17.4441 21.1751 18.6638C21.3166 20.0662 20.2169 21.2503 18.8435 21.2503H15.0936C14.8349 21.2503 14.6249 21.4603 14.6249 21.719V23.594C14.6249 23.8527 14.8349 24.0627 15.0936 24.0627H18.8435C21.8557 24.0627 24.2772 21.4593 23.9744 18.3863Z" fill="#232323"/>
</svg>
