<svg width="26" height="26" viewBox="0 0 26 26" fill="none" xmlns="http://www.w3.org/2000/svg">
<path fill-rule="evenodd" clip-rule="evenodd" d="M3.30198 0H7.69596C9.52895 0 10.9979 1.49502 10.9979 3.32935V7.76112C10.9979 9.60714 9.52895 11.0892 7.69596 11.0892H3.30198C1.48199 11.0892 0 9.60714 0 7.76112V3.32935C0 1.49502 1.48199 0 3.30198 0ZM3.30198 14.9108H7.69596C9.52895 14.9108 10.9979 16.3941 10.9979 18.2402V22.6719C10.9979 24.505 9.52895 26 7.69596 26H3.30198C1.48199 26 0 24.505 0 22.6719V18.2402C0 16.3941 1.48199 14.9108 3.30198 14.9108ZM22.6979 0H18.304C16.471 0 15.002 1.49502 15.002 3.32935V7.76112C15.002 9.60714 16.471 11.0892 18.304 11.0892H22.6979C24.5179 11.0892 25.9999 9.60714 25.9999 7.76112V3.32935C25.9999 1.49502 24.5179 0 22.6979 0ZM18.3039 14.9108H22.6979C24.5179 14.9108 25.9999 16.3941 25.9999 18.2402V22.6719C25.9999 24.505 24.5179 26 22.6979 26H18.3039C16.4709 26 15.002 24.505 15.002 22.6719V18.2402C15.002 16.3941 16.4709 14.9108 18.3039 14.9108Z" fill="#F7F6F6"/>
</svg>
