<svg width="24" height="24" viewBox="0 0 24 24" fill="none" xmlns="http://www.w3.org/2000/svg">
<path d="M6.97307 13.705C7.64753 13.705 8.29946 13.6614 8.91637 13.5803V6.81845C8.29952 6.73741 7.64753 6.69385 6.97307 6.69385C3.12203 6.69385 0.00012207 8.10976 0.00012207 9.85645V10.5423C0.00012207 12.289 3.12203 13.705 6.97307 13.705Z" fill="#0071FB"/>
<path d="M6.97307 17.2357C7.64753 17.2357 8.29946 17.1922 8.91637 17.1112V15.1292C8.29934 15.2102 7.64771 15.2544 6.97307 15.2544C3.61153 15.2544 0.805817 14.1754 0.146775 12.7395C0.0507992 12.9487 0.00012207 13.1652 0.00012207 13.3873V14.0731C0.00012207 15.8198 3.12203 17.2357 6.97307 17.2357Z" fill="#0071FB"/>
<path d="M8.91625 18.8142V18.6602C8.29922 18.7412 7.64759 18.7854 6.97295 18.7854C3.61141 18.7854 0.805695 17.7064 0.146653 16.2705C0.0506772 16.4796 0 16.6962 0 16.9182V17.6041C0 19.3508 3.1219 20.7667 6.97295 20.7667C7.74309 20.7667 8.48382 20.71 9.17651 20.6054C9.00482 20.2542 8.91625 19.8838 8.91625 19.5001V18.8142Z" fill="#0071FB"/>
<path d="M17.027 1.3374C13.176 1.3374 10.0541 2.75332 10.0541 4.50001V5.18589C10.0541 6.93258 13.176 8.3485 17.027 8.3485C20.878 8.3485 24 6.93258 24 5.18589V4.50001C24 2.75332 20.878 1.3374 17.027 1.3374Z" fill="#0071FB"/>
<path d="M17.027 9.89792C13.6655 9.89792 10.8598 8.81905 10.2007 7.38306C10.1048 7.59216 10.0541 7.80873 10.0541 8.0308V8.71668C10.0541 10.4634 13.176 11.8793 17.027 11.8793C20.878 11.8793 24 10.4634 24 8.71668V8.0308C24 7.80873 23.9493 7.59216 23.8533 7.38306C23.1943 8.81905 20.3886 9.89792 17.027 9.89792Z" fill="#0071FB"/>
<path d="M17.027 13.4289C13.6655 13.4289 10.8598 12.35 10.2007 10.9141C10.1048 11.1232 10.0541 11.3397 10.0541 11.5618V12.2477C10.0541 13.9944 13.176 15.4104 17.027 15.4104C20.878 15.4104 24 13.9944 24 12.2477V11.5618C24 11.3397 23.9493 11.1232 23.8533 10.9141C23.1943 12.3501 20.3886 13.4289 17.027 13.4289Z" fill="#0071FB"/>
<path d="M17.027 17.1504C13.6655 17.1504 10.8598 16.0714 10.2007 14.6355C10.1048 14.8447 10.0541 15.0612 10.0541 15.2832V15.9691C10.0541 17.7158 13.176 19.1317 17.027 19.1317C20.878 19.1317 24 17.7158 24 15.9691V15.2832C24 15.0612 23.9493 14.8445 23.8533 14.6355C23.1943 16.0714 20.3886 17.1504 17.027 17.1504Z" fill="#0071FB"/>
<path d="M17.027 20.6814C13.6655 20.6814 10.8598 19.6025 10.2007 18.1666C10.1048 18.3757 10.0541 18.5924 10.0541 18.8143V19.5001C10.0541 21.2468 13.176 22.6627 17.027 22.6627C20.878 22.6627 24 21.2468 24 19.5001V18.8142C24 18.5922 23.9493 18.3755 23.8533 18.1665C23.1943 19.6024 20.3886 20.6814 17.027 20.6814Z" fill="#0071FB"/>
</svg>
