<svg width="15" height="15" viewBox="0 0 15 15" fill="none" xmlns="http://www.w3.org/2000/svg">
<path d="M12.4584 1.83341H11.0417V1.12508C11.0417 0.93722 10.9671 0.757052 10.8343 0.624214C10.7014 0.491376 10.5213 0.416748 10.3334 0.416748C10.1456 0.416748 9.96539 0.491376 9.83255 0.624214C9.69971 0.757052 9.62508 0.93722 9.62508 1.12508V1.83341H5.37508V1.12508C5.37508 0.93722 5.30045 0.757052 5.16762 0.624214C5.03478 0.491376 4.85461 0.416748 4.66675 0.416748C4.47889 0.416748 4.29872 0.491376 4.16588 0.624214C4.03304 0.757052 3.95842 0.93722 3.95842 1.12508V1.83341H2.54175C1.97816 1.83341 1.43766 2.0573 1.03915 2.45581C0.640631 2.85433 0.416748 3.39483 0.416748 3.95842V12.4584C0.416748 13.022 0.640631 13.5625 1.03915 13.961C1.43766 14.3595 1.97816 14.5834 2.54175 14.5834H12.4584C13.022 14.5834 13.5625 14.3595 13.961 13.961C14.3595 13.5625 14.5834 13.022 14.5834 12.4584V3.95842C14.5834 3.39483 14.3595 2.85433 13.961 2.45581C13.5625 2.0573 13.022 1.83341 12.4584 1.83341ZM13.1667 12.4584C13.1667 12.6463 13.0921 12.8264 12.9593 12.9593C12.8264 13.0921 12.6463 13.1667 12.4584 13.1667H2.54175C2.35389 13.1667 2.17372 13.0921 2.04088 12.9593C1.90804 12.8264 1.83341 12.6463 1.83341 12.4584V7.50008H13.1667V12.4584ZM13.1667 6.08342H1.83341V3.95842C1.83341 3.77055 1.90804 3.59039 2.04088 3.45755C2.17372 3.32471 2.35389 3.25008 2.54175 3.25008H3.95842V3.95842C3.95842 4.14628 4.03304 4.32644 4.16588 4.45928C4.29872 4.59212 4.47889 4.66675 4.66675 4.66675C4.85461 4.66675 5.03478 4.59212 5.16762 4.45928C5.30045 4.32644 5.37508 4.14628 5.37508 3.95842V3.25008H9.62508V3.95842C9.62508 4.14628 9.69971 4.32644 9.83255 4.45928C9.96539 4.59212 10.1456 4.66675 10.3334 4.66675C10.5213 4.66675 10.7014 4.59212 10.8343 4.45928C10.9671 4.32644 11.0417 4.14628 11.0417 3.95842V3.25008H12.4584C12.6463 3.25008 12.8264 3.32471 12.9593 3.45755C13.0921 3.59039 13.1667 3.77055 13.1667 3.95842V6.08342Z" fill="#232323"/>
</svg>
