<svg width="7" height="7" viewBox="0 0 7 7" fill="none" xmlns="http://www.w3.org/2000/svg">
<path d="M2.88738 6.00842C2.85596 5.97782 2.72163 5.86225 2.61113 5.75461C1.91617 5.1235 0.778667 3.47713 0.431458 2.61542C0.375667 2.48456 0.257583 2.1537 0.25 1.97692C0.25 1.80754 0.289 1.64607 0.368083 1.49198C0.478583 1.29991 0.652458 1.14582 0.85775 1.06139C1.00021 1.00704 1.4265 0.922613 1.43408 0.922613C1.90046 0.838184 2.65825 0.791748 3.49567 0.791748C4.29354 0.791748 5.02046 0.838184 5.49388 0.907311C5.50146 0.915226 6.03121 0.999655 6.21267 1.092C6.54417 1.26139 6.75 1.59224 6.75 1.94632V1.97692C6.74188 2.20752 6.53604 2.69246 6.52846 2.69246C6.18071 3.50773 5.099 5.11611 4.38021 5.76252C4.38021 5.76252 4.1955 5.94457 4.08013 6.02373C3.91438 6.1472 3.70908 6.20841 3.50379 6.20841C3.27467 6.20841 3.06125 6.13929 2.88738 6.00842" fill="#200E32"/>
</svg>
