<svg width="19" height="19" viewBox="0 0 19 19" fill="none" xmlns="http://www.w3.org/2000/svg">
<path fill-rule="evenodd" clip-rule="evenodd" d="M0 8.23643C0 3.68757 3.64832 0 8.14876 0C10.3099 0 12.3826 0.867764 13.9108 2.41239C15.439 3.95702 16.2975 6.05199 16.2975 8.23643C16.2975 12.7853 12.6492 16.4729 8.14876 16.4729C3.64832 16.4729 0 12.7853 0 8.23643ZM16.1627 14.8715L18.5896 16.8306H18.6317C19.1227 17.3268 19.1227 18.1315 18.6317 18.6278C18.1407 19.124 17.3447 19.124 16.8537 18.6278L14.8396 16.3195C14.6492 16.1277 14.5422 15.8672 14.5422 15.5955C14.5422 15.3238 14.6492 15.0633 14.8396 14.8715C15.2068 14.5068 15.7955 14.5068 16.1627 14.8715Z" fill="#9BB8FF"/>
</svg>
