<svg width="24" height="24" viewBox="0 0 24 24" fill="none" xmlns="http://www.w3.org/2000/svg">
<path id="Vector" d="M12 24C10.375 24 8.82031 23.6836 7.33594 23.0508C5.85156 22.418 4.57422 21.5664 3.50391 20.4961C2.43359 19.4258 1.58203 18.1484 0.949219 16.6641C0.316406 15.1797 0 13.625 0 12C0 10.375 0.316406 8.82031 0.949219 7.33594C1.58203 5.85156 2.43359 4.57422 3.50391 3.50391C4.57422 2.43359 5.85156 1.58203 7.33594 0.949219C8.82031 0.316406 10.375 0 12 0C13.625 0 15.1797 0.316406 16.6641 0.949219C18.1484 1.58203 19.4258 2.43359 20.4961 3.50391C21.5664 4.57422 22.418 5.85156 23.0508 7.33594C23.6836 8.82031 24 10.375 24 12C24 13.625 23.6836 15.1797 23.0508 16.6641C22.418 18.1484 21.5664 19.4258 20.4961 20.4961C19.4258 21.5664 18.1484 22.418 16.6641 23.0508C15.1797 23.6836 13.625 24 12 24ZM12 3C10.375 3 8.87109 3.40234 7.48828 4.20703C6.10547 5.01172 5.01172 6.10547 4.20703 7.48828C3.40234 8.87109 3 10.375 3 12C3 13.625 3.40234 15.1289 4.20703 16.5117C5.01172 17.8945 6.10547 18.9883 7.48828 19.793C8.87109 20.5977 10.375 21 12 21C13.625 21 15.1289 20.5977 16.5117 19.793C17.8945 18.9883 18.9883 17.8945 19.793 16.5117C20.5977 15.1289 21 13.625 21 12C21 10.375 20.5977 8.87109 19.793 7.48828C18.9883 6.10547 17.8945 5.01172 16.5117 4.20703C15.1289 3.40234 13.625 3 12 3ZM12.75 19.5H11.25C11.0469 19.5 10.8711 19.4258 10.7227 19.2773C10.5742 19.1289 10.5 18.9531 10.5 18.75V17.25C10.5 17.0469 10.5742 16.8711 10.7227 16.7227C10.8711 16.5742 11.0469 16.5 11.25 16.5H12.75C12.9531 16.5 13.1289 16.5742 13.2773 16.7227C13.4258 16.8711 13.5 17.0469 13.5 17.25V18.75C13.5 18.9531 13.4258 19.1289 13.2773 19.2773C13.1289 19.4258 12.9531 19.5 12.75 19.5ZM12.75 15H11.25C11.0469 15 10.8711 14.9258 10.7227 14.7773C10.5742 14.6289 10.5 14.4531 10.5 14.25V5.25C10.5 5.04688 10.5742 4.87109 10.7227 4.72266C10.8711 4.57422 11.0469 4.5 11.25 4.5H12.75C12.9531 4.5 13.1289 4.57422 13.2773 4.72266C13.4258 4.87109 13.5 5.04688 13.5 5.25V14.25C13.5 14.4531 13.4258 14.6289 13.2773 14.7773C13.1289 14.9258 12.9531 15 12.75 15Z" fill="#0071FB"/>
</svg>
