<svg width="26" height="23" viewBox="0 0 26 23" fill="none" xmlns="http://www.w3.org/2000/svg">
<path fill-rule="evenodd" clip-rule="evenodd" d="M19.4207 0C21.164 0 22.841 0.677222 24.0747 1.89239C25.3097 3.105 26 4.74056 26 6.45278V16.5472C26 20.1122 23.049 23 19.4207 23H6.578C2.9497 23 0 20.1122 0 16.5472V6.45278C0 2.88778 2.9367 0 6.578 0H19.4207ZM21.489 8.3567L21.593 8.25448C21.9037 7.88392 21.9037 7.34725 21.5787 6.9767C21.398 6.78631 21.1497 6.67003 20.891 6.64448C20.618 6.63042 20.358 6.72114 20.1617 6.90003L14.3 11.5C13.546 12.1146 12.4657 12.1146 11.7 11.5L5.84996 6.90003C5.44566 6.60614 4.88666 6.64448 4.54996 6.98948C4.19896 7.33448 4.15996 7.88392 4.45766 8.26725L4.62796 8.43336L10.543 12.9695C11.271 13.5317 12.1537 13.8384 13.078 13.8384C13.9997 13.8384 14.898 13.5317 15.6247 12.9695L21.489 8.3567Z" fill="white"/>
</svg>
