<svg width="14" height="14" viewBox="0 0 14 14" fill="none" xmlns="http://www.w3.org/2000/svg">
<path d="M5 0.600098C4.46957 0.600098 3.96086 0.810811 3.58579 1.18588C3.21071 1.56096 3 2.06966 3 2.6001V9.0001C3 9.53053 3.21071 10.0392 3.58579 10.4143C3.96086 10.7894 4.46957 11.0001 5 11.0001H11.4C11.9304 11.0001 12.4391 10.7894 12.8142 10.4143C13.1893 10.0392 13.4 9.53053 13.4 9.0001V2.6001C13.4 2.06966 13.1893 1.56096 12.8142 1.18588C12.4391 0.810811 11.9304 0.600098 11.4 0.600098H5ZM12.6 2.6001V3.0001H7.4C7.29391 3.0001 7.19217 2.95795 7.11716 2.88294C7.04214 2.80793 7 2.70618 7 2.6001V1.4001H11.4C11.7183 1.4001 12.0235 1.52653 12.2485 1.75157C12.4736 1.97661 12.6 2.28184 12.6 2.6001ZM6.2 2.6001C6.2 2.91836 6.32643 3.22358 6.55147 3.44863C6.77651 3.67367 7.08174 3.8001 7.4 3.8001H12.6V9.0001C12.6 9.31836 12.4736 9.62358 12.2485 9.84863C12.0235 10.0737 11.7183 10.2001 11.4 10.2001H5C4.68174 10.2001 4.37652 10.0737 4.15147 9.84863C3.92643 9.62358 3.8 9.31836 3.8 9.0001V2.6001C3.8 2.28184 3.92643 1.97661 4.15147 1.75157C4.37652 1.52653 4.68174 1.4001 5 1.4001H6.2V2.6001Z" fill="#232323"/>
<path d="M9.0001 13.4C9.46116 13.4001 9.90809 13.2409 10.2653 12.9494C10.6224 12.6578 10.8679 12.2518 10.9601 11.8H10.1321C10.0493 12.0341 9.89603 12.2367 9.69329 12.38C9.49055 12.5233 9.24836 12.6002 9.0001 12.6H3.8001C3.16358 12.6 2.55313 12.3472 2.10304 11.8971C1.65295 11.447 1.4001 10.8366 1.4001 10.2V5.00004C1.39997 4.75178 1.47684 4.50959 1.62012 4.30685C1.7634 4.1041 1.96604 3.95079 2.2001 3.86804V3.04004C1.74835 3.13225 1.34234 3.37771 1.05078 3.73488C0.759211 4.09204 0.600004 4.53898 0.600098 5.00004V10.2C0.600098 11.0487 0.93724 11.8627 1.53736 12.4628C2.13747 13.0629 2.9514 13.4 3.8001 13.4H9.0001Z" fill="#232323"/>
</svg>
