<svg width="24" height="28" viewBox="0 0 24 28" fill="none" xmlns="http://www.w3.org/2000/svg">
<path fill-rule="evenodd" clip-rule="evenodd" d="M20.9428 9.72828C20.9428 11.4029 21.3854 12.3899 22.3594 13.5273C23.0975 14.3653 23.3334 15.4409 23.3334 16.6079C23.3334 17.7735 22.9504 18.88 22.1832 19.7784C21.1787 20.8554 19.7621 21.543 18.3164 21.6625C16.2213 21.8411 14.125 21.9915 12.0007 21.9915C9.87521 21.9915 7.78015 21.9015 5.68509 21.6625C4.23802 21.543 2.82144 20.8554 1.8183 19.7784C1.05104 18.88 0.666748 17.7735 0.666748 16.6079C0.666748 15.4409 0.90395 14.3653 1.64073 13.5273C2.6452 12.3899 3.05864 11.4029 3.05864 9.72828V9.16024C3.05864 6.91762 3.61785 5.4512 4.76941 4.01565C6.4815 1.9221 9.22588 0.666504 11.9411 0.666504H12.0604C14.8339 0.666504 17.6671 1.98253 19.35 4.16606C20.4419 5.57206 20.9428 6.97671 20.9428 9.16024V9.72828ZM8.09831 24.7476C8.09831 24.0762 8.71451 23.7687 9.28432 23.6371C9.95087 23.496 14.0124 23.496 14.679 23.6371C15.2488 23.7687 15.865 24.0762 15.865 24.7476C15.8319 25.3868 15.4569 25.9535 14.9387 26.3134C14.2669 26.8371 13.4784 27.1688 12.6542 27.2883C12.1983 27.3474 11.7504 27.3488 11.3105 27.2883C10.4849 27.1688 9.69644 26.8371 9.02592 26.3121C8.50646 25.9535 8.13144 25.3868 8.09831 24.7476Z" fill="#F7F6F6"/>
</svg>
