<svg width="22" height="26" viewBox="0 0 22 26" fill="none" xmlns="http://www.w3.org/2000/svg">
<path fill-rule="evenodd" clip-rule="evenodd" d="M6.92075 18.7069H13.7911C14.3089 18.7069 14.7383 18.2649 14.7383 17.7319C14.7383 17.1989 14.3089 16.7699 13.7911 16.7699H6.92075C6.40295 16.7699 5.97355 17.1989 5.97355 17.7319C5.97355 18.2649 6.40295 18.7069 6.92075 18.7069ZM11.1895 10.2699H6.92075C6.40295 10.2699 5.97355 10.7119 5.97355 11.2449C5.97355 11.7779 6.40295 12.2069 6.92075 12.2069H11.1895C11.7073 12.2069 12.1367 11.7779 12.1367 11.2449C12.1367 10.7119 11.7073 10.2699 11.1895 10.2699ZM20.2024 9.13329C20.4993 9.1298 20.8225 9.126 21.1162 9.126C21.4319 9.126 21.6845 9.386 21.6845 9.711V20.163C21.6845 23.387 19.146 26 16.014 26H5.96103C2.67741 26 0 23.257 0 19.877V5.863C0 2.639 2.55112 0 5.69582 0H12.4399C12.7682 0 13.0208 0.273 13.0208 0.598V4.784C13.0208 7.163 14.9278 9.113 17.239 9.126C17.7788 9.126 18.2548 9.13011 18.6713 9.13371C18.9953 9.13651 19.2833 9.139 19.5375 9.139C19.7173 9.139 19.9503 9.13626 20.2024 9.13329ZM21.3726 7.52509C20.293 7.52915 19.0202 7.52509 18.1048 7.51563C16.6521 7.51563 15.4555 6.28395 15.4555 4.78864V1.22477C15.4555 0.642058 16.1425 0.35273 16.5352 0.773202C17.2465 1.53447 18.2241 2.58107 19.197 3.62271C20.1663 4.66041 21.131 5.69319 21.8231 6.43403C22.2067 6.84368 21.9256 7.52374 21.3726 7.52509Z" fill="white"/>
</svg>
