<svg width="17" height="20" viewBox="0 0 17 20" fill="none" xmlns="http://www.w3.org/2000/svg">
<path d="M16.0001 18.0001H2.00005C1.73484 18.0001 1.48048 18.1055 1.29295 18.293C1.10541 18.4805 1.00005 18.7349 1.00005 19.0001C1.00005 19.2653 1.10541 19.5197 1.29295 19.7072C1.48048 19.8947 1.73484 20.0001 2.00005 20.0001H16.0001C16.2653 20.0001 16.5196 19.8947 16.7072 19.7072C16.8947 19.5197 17.0001 19.2653 17.0001 19.0001C17.0001 18.7349 16.8947 18.4805 16.7072 18.293C16.5196 18.1055 16.2653 18.0001 16.0001 18.0001ZM2.00005 16.0001H2.09005L6.26005 15.6201C6.71685 15.5746 7.14409 15.3733 7.47005 15.0501L16.4701 6.0501C16.8194 5.68107 17.0082 5.18861 16.995 4.68064C16.9819 4.17267 16.768 3.69061 16.4001 3.3401L13.6601 0.600102C13.3024 0.264198 12.8338 0.0714609 12.3434 0.0585541C11.8529 0.0456473 11.3748 0.213471 11.0001 0.530102L2.00005 9.5301C1.67682 9.85607 1.47556 10.2833 1.43005 10.7401L1.00005 14.9101C0.986582 15.0566 1.00559 15.2042 1.05571 15.3425C1.10584 15.4808 1.18585 15.6063 1.29005 15.7101C1.38349 15.8028 1.49431 15.8761 1.61615 15.9259C1.73798 15.9756 1.86845 16.0009 2.00005 16.0001ZM12.2701 2.0001L15.0001 4.7301L13.0001 6.6801L10.3201 4.0001L12.2701 2.0001ZM3.37005 10.9101L9.00005 5.3201L11.7001 8.0201L6.10005 13.6201L3.10005 13.9001L3.37005 10.9101Z" fill="black"/>
</svg>
