<svg width="28" height="28" viewBox="0 0 28 28" fill="none" xmlns="http://www.w3.org/2000/svg">
<rect x="1" y="1" width="26" height="26" rx="13" fill="white" stroke="#779EFF" stroke-width="2"/>
<path d="M17.2292 7.33325C17.5751 7.33323 17.9078 7.46557 18.1593 7.70312C18.4107 7.94066 18.5617 8.26542 18.5812 8.61075L18.5833 8.68742V9.83325H19.3125C20.5208 9.83325 21.5 10.8124 21.5 12.0208V17.6458C21.5 18.0049 21.3573 18.3493 21.1034 18.6033C20.8494 18.8572 20.505 18.9999 20.1458 18.9999H18.5833V19.7291C18.5833 20.0882 18.4407 20.4327 18.1867 20.6866C17.9328 20.9406 17.5883 21.0833 17.2292 21.0833H10.7708C10.4117 21.0833 10.0672 20.9406 9.81329 20.6866C9.55934 20.4327 9.41667 20.0882 9.41667 19.7291V18.9999H7.85417C7.49502 18.9999 7.15058 18.8572 6.89663 18.6033C6.64267 18.3493 6.5 18.0049 6.5 17.6458V12.0208C6.5 10.8124 7.47917 9.83325 8.6875 9.83325H9.41667V8.68742C9.41664 8.34153 9.54898 8.00874 9.78653 7.75732C10.0241 7.5059 10.3488 7.35492 10.6942 7.33534L10.7708 7.33325H17.2292ZM10.4583 19.7291C10.4583 19.9016 10.5983 20.0416 10.7708 20.0416H17.2292C17.312 20.0416 17.3915 20.0087 17.4501 19.9501C17.5087 19.8915 17.5417 19.812 17.5417 19.7291V16.1874C17.5417 16.1045 17.5087 16.0251 17.4501 15.9664C17.3915 15.9078 17.312 15.8749 17.2292 15.8749H10.7708C10.688 15.8749 10.6085 15.9078 10.5499 15.9664C10.4913 16.0251 10.4583 16.1045 10.4583 16.1874V19.7291ZM17.2292 8.37492H10.7708C10.6953 8.37492 10.6224 8.40227 10.5654 8.4519C10.5085 8.50154 10.4715 8.5701 10.4612 8.64492L10.4583 8.68742V9.83325H17.5417V8.68742C17.5417 8.6119 17.5143 8.53894 17.4647 8.48203C17.415 8.42512 17.3465 8.38811 17.2717 8.37784L17.2292 8.37492Z" fill="#779EFF"/>
</svg>
