<svg width="16" height="15" viewBox="0 0 16 15" fill="none" xmlns="http://www.w3.org/2000/svg">
<path d="M11.2292 0.333252C11.5751 0.333229 11.9078 0.465566 12.1593 0.703115C12.4107 0.940664 12.5617 1.26542 12.5812 1.61075L12.5833 1.68742V2.83325H13.3125C14.5208 2.83325 15.5 3.81242 15.5 5.02075V10.6458C15.5 11.0049 15.3573 11.3493 15.1034 11.6033C14.8494 11.8572 14.505 11.9999 14.1458 11.9999H12.5833V12.7291C12.5833 13.0882 12.4407 13.4327 12.1867 13.6866C11.9328 13.9406 11.5883 14.0833 11.2292 14.0833H4.77083C4.41169 14.0833 4.06725 13.9406 3.81329 13.6866C3.55934 13.4327 3.41667 13.0882 3.41667 12.7291V11.9999H1.85417C1.49502 11.9999 1.15058 11.8572 0.896626 11.6033C0.642671 11.3493 0.5 11.0049 0.5 10.6458V5.02075C0.5 3.81242 1.47917 2.83325 2.6875 2.83325H3.41667V1.68742C3.41664 1.34153 3.54898 1.00874 3.78653 0.757322C4.02408 0.505905 4.34883 0.354918 4.69417 0.335335L4.77083 0.333252H11.2292ZM4.45833 12.7291C4.45833 12.9016 4.59833 13.0416 4.77083 13.0416H11.2292C11.312 13.0416 11.3915 13.0087 11.4501 12.9501C11.5087 12.8915 11.5417 12.812 11.5417 12.7291V9.18742C11.5417 9.10454 11.5087 9.02505 11.4501 8.96645C11.3915 8.90784 11.312 8.87492 11.2292 8.87492H4.77083C4.68795 8.87492 4.60847 8.90784 4.54986 8.96645C4.49126 9.02505 4.45833 9.10454 4.45833 9.18742V12.7291ZM11.2292 1.37492H4.77083C4.69532 1.37492 4.62236 1.40227 4.56545 1.4519C4.50853 1.50154 4.47152 1.5701 4.46125 1.64492L4.45833 1.68742V2.83325H11.5417V1.68742C11.5417 1.6119 11.5143 1.53894 11.4647 1.48203C11.415 1.42512 11.3465 1.38811 11.2717 1.37784L11.2292 1.37492Z" fill="#779EFF"/>
</svg>
