<svg width="24" height="24" viewBox="0 0 24 24" fill="none" xmlns="http://www.w3.org/2000/svg">
<g clip-path="url(#clip0)">
<path d="M21.0376 0H12.0001C10.3638 0 9.0376 1.32385 9.0376 2.96246V16.5187C9.0376 17.0938 9.69714 17.4302 10.1626 17.0812L12.9875 14.9625H21.0376C22.6738 14.9625 24.0001 13.6386 24.0001 12V2.96246C24.0001 1.32623 22.6762 0 21.0376 0V0ZM16.5187 11.5734C16.1307 11.5734 15.8156 11.2584 15.8156 10.8702C15.8156 10.4822 16.1307 10.1671 16.5187 10.1671C16.9069 10.1671 17.2219 10.4822 17.2219 10.8702C17.2219 11.2584 16.9069 11.5734 16.5187 11.5734ZM17.2219 8.46387V8.6109C17.2219 8.99927 16.9071 9.31403 16.5187 9.31403C16.1306 9.31403 15.8156 8.99927 15.8156 8.6109V7.85779C15.8156 7.46942 16.1306 7.15466 16.5187 7.15466C17.1693 7.15466 17.6985 6.62549 17.6985 5.97491C17.6985 5.32452 17.1693 4.79535 16.5187 4.79535C15.8649 4.79535 15.3392 5.32416 15.3392 5.97418C15.3392 6.36255 15.0242 6.67786 14.636 6.67786C14.2477 6.67786 13.9329 6.36328 13.9329 5.9751V5.97418C13.9329 4.54413 15.0905 3.3891 16.518 3.3891C17.9448 3.3891 19.1047 4.54907 19.1047 5.9751C19.1047 7.15723 18.3073 8.1568 17.2219 8.46387Z" fill="#0071FB"/>
<path d="M7.79248 14.6203C7.79248 16.4559 6.30438 17.944 4.46875 17.944C2.63312 17.944 1.14502 16.4559 1.14502 14.6203C1.14502 12.7845 2.63312 11.2964 4.46875 11.2964C6.30438 11.2964 7.79248 12.7845 7.79248 14.6203Z" fill="#0071FB"/>
<path d="M4.46869 17.9438C2.00079 17.9438 0 19.9446 0 22.4125V23.2968C0 23.6851 0.314758 23.9999 0.703125 23.9999H8.23444C8.62262 23.9999 8.93756 23.6851 8.93756 23.2968V22.4125C8.93756 19.9446 6.93677 17.9438 4.46869 17.9438Z" fill="#0071FB"/>
</g>
<defs>
<clipPath id="clip0">
<rect width="24" height="24" fill="white"/>
</clipPath>
</defs>
</svg>
