<svg width="26" height="26" viewBox="0 0 26 26" fill="none" xmlns="http://www.w3.org/2000/svg">
<path d="M21.2205 24.0085H4.39697V25.9203H21.2205V24.0085Z" fill="#0071FB"/>
<path d="M15.8358 8.6189H9.94126C9.41328 8.6189 8.98535 9.04683 8.98535 9.5748C8.98535 10.1028 9.41328 10.5307 9.94126 10.5307H15.8358C16.3638 10.5307 16.7917 10.1028 16.7917 9.5748C16.7917 9.04683 16.3638 8.6189 15.8358 8.6189Z" fill="#0071FB"/>
<path d="M20.2966 13.0798H9.94126C9.41328 13.0798 8.98535 13.5078 8.98535 14.0357C8.98535 14.5637 9.41328 14.9916 9.94126 14.9916H20.2967C20.8246 14.9916 21.2525 14.5637 21.2525 14.0357C21.2525 13.5078 20.8246 13.0798 20.2966 13.0798Z" fill="#0071FB"/>
<path d="M25.4367 0.196006C25.0935 0.0417832 24.6924 0.10267 24.4107 0.351498L21.7339 2.71953L19.0539 0.323111C18.691 -0.00158399 18.1424 -0.00158399 17.7794 0.323111L15.103 2.71663L12.4262 0.323111C12.0632 -0.00158399 11.5149 -0.00158399 11.152 0.323111L8.47199 2.71953L5.79521 0.351498C5.51388 0.102975 5.1124 0.0420879 4.76922 0.196006C4.4264 0.350533 4.20591 0.691478 4.20591 1.06746V18.0822H0.955906C0.427934 18.0821 0 18.5101 0 19.038V21.364C0 23.8764 2.044 25.9204 4.55635 25.9204V24.0086C3.09801 24.0086 1.91176 22.822 1.91176 21.364V19.9939H16.8873V21.364C16.8873 23.8764 18.9312 25.9204 21.4436 25.9204C23.956 25.9204 25.9999 23.8764 25.9999 21.3641V1.06741C26 0.691428 25.7795 0.350533 25.4367 0.196006ZM24.0882 21.364C24.0882 22.822 22.9017 24.0086 21.4437 24.0086C19.9856 24.0086 18.7991 22.822 18.7991 21.364V19.038C18.7991 18.5101 18.3711 18.0821 17.8432 18.0821H6.11767V3.18915L7.8424 4.71508C8.20564 5.03627 8.75174 5.03465 9.11275 4.71158L11.7892 2.31805L14.4657 4.71127C14.8286 5.03597 15.3773 5.03597 15.7402 4.71127L18.417 2.31775L21.0935 4.71127C21.4548 5.03434 22.0009 5.03561 22.3638 4.71478L24.0882 3.1892V21.364Z" fill="#0071FB"/>
</svg>
