<svg width="28" height="28" viewBox="0 0 28 28" fill="none" xmlns="http://www.w3.org/2000/svg">
<path fill-rule="evenodd" clip-rule="evenodd" d="M0.666748 12.2264C0.666748 5.84205 5.7872 0.666504 12.1036 0.666504C15.1368 0.666504 18.0459 1.88442 20.1907 4.05232C22.3355 6.22022 23.5405 9.16053 23.5405 12.2264C23.5405 18.6108 18.42 23.7863 12.1036 23.7863C5.7872 23.7863 0.666748 18.6108 0.666748 12.2264ZM23.3512 21.5389L26.7574 24.2884H26.8166C27.5057 24.9849 27.5057 26.1142 26.8166 26.8108C26.1274 27.5073 25.0102 27.5073 24.321 26.8108L21.4944 23.5711C21.2271 23.302 21.0769 22.9363 21.0769 22.555C21.0769 22.1737 21.2271 21.8081 21.4944 21.5389C22.0097 21.027 22.8358 21.027 23.3512 21.5389Z" fill="#F7F6F6"/>
</svg>
