<svg width="26" height="30" viewBox="0 0 26 30" fill="none" xmlns="http://www.w3.org/2000/svg">
<path fill-rule="evenodd" clip-rule="evenodd" d="M12.5842 29.8705C12.7535 29.9573 12.9429 30.0014 13.1323 30C13.3217 29.9985 13.5095 29.9529 13.6804 29.8646L19.1372 27.0037C20.6846 26.1947 21.8964 25.2901 22.8418 24.2369C24.8973 21.9423 26.0198 19.0137 25.9997 15.994L25.9351 6.03298C25.9289 4.88567 25.1606 3.86192 24.0243 3.48978L13.8729 0.149346C13.2616 -0.0536389 12.5919 -0.0492262 11.9914 0.159643L1.87849 3.61922C0.748341 4.00607 -0.00612145 5.03718 3.74277e-05 6.18595L0.0647056 16.1396C0.084722 19.1638 1.24567 22.0791 3.33507 24.3502C4.2897 25.3887 5.51223 26.28 7.07659 27.0758L12.5842 29.8705ZM10.2739 18.394C10.5017 18.6087 10.7974 18.7146 11.093 18.7117C11.3886 18.7102 11.6827 18.6014 11.9075 18.3837L17.8708 12.6177C18.3189 12.1838 18.3143 11.4866 17.8616 11.0585C17.4074 10.6305 16.676 10.6334 16.2279 11.0674L11.076 16.0479L8.96663 14.0592C8.51241 13.6312 7.78259 13.6356 7.33299 14.0695C6.88493 14.5034 6.88955 15.2006 7.34377 15.6286L10.2739 18.394Z" fill="white"/>
</svg>
