<svg width="24" height="24" viewBox="0 0 24 24" fill="none" xmlns="http://www.w3.org/2000/svg">
<g clip-path="url(#clip0)">
<path d="M12 9.68604C14.2523 9.68604 16.0781 7.8602 16.0781 5.60791C16.0781 3.35562 14.2523 1.52979 12 1.52979C9.74771 1.52979 7.92188 3.35562 7.92188 5.60791C7.92188 7.8602 9.74771 9.68604 12 9.68604Z" fill="#0071FB"/>
<path d="M20.25 9.68604C21.6739 9.68604 22.8281 8.53177 22.8281 7.10791C22.8281 5.68405 21.6739 4.52979 20.25 4.52979C18.8261 4.52979 17.6719 5.68405 17.6719 7.10791C17.6719 8.53177 18.8261 9.68604 20.25 9.68604Z" fill="#0071FB"/>
<path d="M3.75 9.68604C5.17386 9.68604 6.32812 8.53177 6.32812 7.10791C6.32812 5.68405 5.17386 4.52979 3.75 4.52979C2.32614 4.52979 1.17188 5.68405 1.17188 7.10791C1.17188 8.53177 2.32614 9.68604 3.75 9.68604Z" fill="#0071FB"/>
<path d="M6.29016 12.0011C5.27531 11.1697 4.35623 11.2797 3.18281 11.2797C1.42781 11.2797 0 12.6991 0 14.4433V19.5625C0 20.32 0.618281 20.936 1.37859 20.936C4.66106 20.936 4.26562 20.9954 4.26562 20.7944C4.26562 17.1669 3.83597 14.5067 6.29016 12.0011Z" fill="#0071FB"/>
<path d="M13.116 11.2985C11.0664 11.1275 9.28494 11.3004 7.74833 12.5688C5.17691 14.6285 5.67177 17.4017 5.67177 20.7944C5.67177 21.692 6.40208 22.436 7.31333 22.436C17.2078 22.436 17.6016 22.7551 18.1883 21.4558C18.3808 21.0164 18.328 21.156 18.328 16.9525C18.328 13.6138 15.4371 11.2985 13.116 11.2985Z" fill="#0071FB"/>
<path d="M20.8171 11.2796C19.6372 11.2796 18.7232 11.1707 17.7097 12.001C20.1456 14.488 19.7342 16.9667 19.7342 20.7943C19.7342 20.9965 19.406 20.9358 22.5721 20.9358C23.3596 20.9358 23.9999 20.2979 23.9999 19.5137V14.4432C23.9999 12.699 22.5721 11.2796 20.8171 11.2796Z" fill="#0071FB"/>
</g>
<defs>
<clipPath id="clip0">
<rect width="24" height="24" fill="white"/>
</clipPath>
</defs>
</svg>
