<svg width="13" height="14" viewBox="0 0 13 14" fill="none" xmlns="http://www.w3.org/2000/svg">
<path d="M6.5 0.9375C7.0146 0.937428 7.51064 1.12973 7.89072 1.47664C8.2708 1.82356 8.50747 2.30003 8.55425 2.8125H11.75C11.8925 2.81254 12.0297 2.86668 12.1338 2.96398C12.238 3.06128 12.3013 3.19447 12.311 3.33666C12.3207 3.47885 12.2761 3.61942 12.1862 3.72997C12.0962 3.84053 11.9677 3.91282 11.8265 3.93225L11.75 3.9375H11.3127L10.3625 12.1725C10.3202 12.538 10.145 12.8753 9.87019 13.1201C9.59541 13.3648 9.24024 13.5001 8.87225 13.5H4.12775C3.75976 13.5001 3.40459 13.3648 3.12981 13.1201C2.85503 12.8753 2.67982 12.538 2.6375 12.1725L1.6865 3.9375H1.25C1.11407 3.93749 0.982743 3.88827 0.880302 3.79892C0.777861 3.70958 0.711236 3.58617 0.69275 3.4515L0.6875 3.375C0.687506 3.23907 0.736732 3.10774 0.826075 3.0053C0.915419 2.90286 1.03883 2.83624 1.1735 2.81775L1.25 2.8125H4.44575C4.49253 2.30003 4.7292 1.82356 5.10928 1.47664C5.48936 1.12973 5.9854 0.937428 6.5 0.9375ZM5.375 5.625C5.19125 5.625 5.0375 5.74125 5.006 5.89425L5 5.9535V10.5473L5.006 10.6058C5.0375 10.7588 5.19125 10.875 5.375 10.875C5.55875 10.875 5.7125 10.7588 5.744 10.6058L5.75 10.5465V5.95425L5.744 5.89425C5.7125 5.742 5.55875 5.625 5.375 5.625ZM7.625 5.625C7.44125 5.625 7.2875 5.74125 7.256 5.89425L7.25 5.9535V10.5473L7.256 10.6058C7.2875 10.7588 7.44125 10.875 7.625 10.875C7.80875 10.875 7.9625 10.7588 7.994 10.6058L8 10.5465V5.95425L7.994 5.89425C7.9625 5.742 7.80875 5.62575 7.625 5.62575V5.625ZM6.5 2.0625C6.04625 2.0625 5.6675 2.385 5.58125 2.8125H7.41875C7.33175 2.385 6.95375 2.0625 6.5 2.0625Z" fill="#AFAFAF"/>
</svg>
