<svg width="24" height="24" viewBox="0 0 24 24" fill="none" xmlns="http://www.w3.org/2000/svg">
<path d="M11.9999 0.0991211C5.43069 0.0991211 0.0991211 5.43069 0.0991211 11.9999C0.0991211 18.5692 5.43069 23.9008 11.9999 23.9008C18.5692 23.9008 23.9008 18.5692 23.9008 11.9999C23.9008 5.43069 18.5692 0.0991211 11.9999 0.0991211ZM6.13284 19.4737C6.64458 18.4026 9.76259 17.3553 11.9999 17.3553C14.2373 17.3553 17.3672 18.4026 17.8671 19.4737C16.2485 20.759 14.2135 21.5206 11.9999 21.5206C9.78639 21.5206 7.75135 20.759 6.13284 19.4737ZM19.5689 17.748C17.8671 15.6773 13.7375 14.9752 11.9999 14.9752C10.2624 14.9752 6.13284 15.6773 4.43102 17.748C3.16674 16.0984 2.48084 14.0783 2.47929 11.9999C2.47929 6.75168 6.75168 2.47929 11.9999 2.47929C17.2482 2.47929 21.5206 6.75168 21.5206 11.9999C21.5206 14.1659 20.7828 16.1533 19.5689 17.748ZM11.9999 4.85945C9.69119 4.85945 7.83466 6.71598 7.83466 9.02474C7.83466 11.3335 9.69119 13.19 11.9999 13.19C14.3087 13.19 16.1652 11.3335 16.1652 9.02474C16.1652 6.71598 14.3087 4.85945 11.9999 4.85945ZM11.9999 10.8099C11.0122 10.8099 10.2148 10.0125 10.2148 9.02474C10.2148 8.03697 11.0122 7.23962 11.9999 7.23962C12.9877 7.23962 13.7851 8.03697 13.7851 9.02474C13.7851 10.0125 12.9877 10.8099 11.9999 10.8099Z" fill="#0071FB"/>
</svg>
